# xmcd
#
# Track frame offsets:
#	185
#	17675
#	41095
#	57917
#	72567
#	88432
#	105767
#	129077
#
# Disc length: 1947 seconds
#
# Revision: 0
# Processed by: cddbd v1.5.1PL2 Copyright (c) Steve Scherf et al.
# Submitted via: dBpowerAMP V4.0
#
DISCID=65079908
DTITLE=Charles Wilson - Blues In The Key Of C.
DYEAR=1991
DGENRE=Blues
TTITLE0=Who's It Going To Be
TTITLE1=Is It Over
TTITLE2=Leaning Tree
TTITLE3=You Cut Off My Love Supply
TTITLE4=Let's Have A Good Time
TTITLE5=Selfish Lover
TTITLE6=It's A Crying Shame
TTITLE7=I've Got A Good Woman
EXTD=
EXTT0=
EXTT1=
EXTT2=
EXTT3=
EXTT4=
EXTT5=
EXTT6=
EXTT7=
PLAYORDER=
